<svg xmlns="http://www.w3.org/2000/svg" width="64" height="64" viewBox="395 390 1262 1262"><rect x="395" y="390" width="1262" height="1262" fill="#F5F0E8"/><g transform="translate(0.000000,2048.000000) scale(0.100000,-0.100000)" fill="#000000" stroke="none"><path d="M11225 15890c-55 -21 -81 -89 -89 -231 -13 -209 -16 -214 -85 -158 -43 34 -144 54 -218 43 -52 -8 -72 -30 -107 -122 -63 -162 -79 -173 -148 -98 -74 81 -118 70 -97 -23 18 -80 13 -219 -10 -310 -11 -46 -21 -85 -21 -87 0 -10 -31 -2 -59 13 -59 35 -101 -61 -106 -242 -3 -108 -16 -215 -32 -269 -4 -16 -12 -17 -52 -12 -80 11 -103 -35 -66 -128 51 -127 23 -213 -55 -168 -116 66 -120 -21 -11 -249 50 -107 37 -137 -52 -116 -82 18 -83 -30 -3 -158 46 -73 56 -93 56 -109 0 -23 -56 -28 -155 -11 -62 10 -63 -5 -10 -110 27 -53 74 -126 103 -162 59 -71 58 -82 -8 -83 -75 -1 -96 -71 -38 -129 79 -80 253 -203 331 -232 44 -17 32 -35 -40 -60 -123 -43 -119 -105 12 -184 63 -38 289 -135 315 -135 22 0 50 -41 50 -74 0 -78 85 -113 185 -76 37 14 99 25 163 30 120 9 128 13 267 145 146 140 209 114 160 -65 -28 -102 -37 -218 -21 -269 24 -77 30 -177 11 -184 -15 -6 -35 25 -35 56 0 7 -10 32 -22 57 -13 28 -22 66 -22 101 -3 165 -127 120 -291 -106 -40 -55 -136 -147 -282 -272 -74 -63 -153 -142 -198 -197 -125 -156 -157 -187 -306 -295 -79 -57 -178 -132 -219 -166 -151 -123 -550 -366 -550 -335 0 5 19 41 42 82 107 187 116 323 31 454 -12 19 -10 29 18 88 46 98 57 188 36 303 -9 50 -17 102 -17 115 0 53 -56 74 -88 33 -11 -14 -24 -25 -29 -25 -16 0 -90 181 -108 265 -10 44 -23 86 -28 93 -11 14 -53 16 -62 2 -15 -24 -45 -3 -154 108 -219 222 -432 331 -502 256 -63 -68 -383 69 -545 234 -82 84 -101 94 -128 67 -19 -20 -13 -54 26 -155 45 -113 108 -302 108 -320 0 -9 -16 -32 -36 -50 -31 -27 -35 -37 -30 -62 6 -30 70 -130 88 -136 20 -9 7 -42 -19 -47 -90 -18 -103 -44 -58 -111 15 -21 33 -53 42 -71 8 -18 57 -73 109 -122 110 -106 112 -111 39 -109 -159 4 -60 -144 171 -257 96 -47 103 -52 82 -73 -21 -21 59 -85 143 -115 217 -78 401 -64 653 50 69 31 80 33 93 20 37 -36 44 -201 14 -294 -71 -214 -118 -269 -245 -284 -82 -9 -121 -25 -244 -105 -58 -38 -93 -54 -116 -54 -18 0 -78 -12 -132 -26 -222 -59 -410 -73 -723 -55 -331 20 -341 25 -209 111 46 29 108 73 139 97 66 52 74 53 64 11 -18 -79 2 -124 70 -163 159 -93 371 129 267 280 -113 164 -290 130 -593 -113 -202 -161 -242 -185 -375 -221 -234 -63 -260 -70 -334 -87 -41 -9 -145 -36 -232 -60 -86 -24 -219 -57 -295 -74 -603 -127 -650 -156 -552 -350 81 -162 244 -207 444 -123 155 66 416 138 680 188 202 38 344 70 490 109 180 49 397 58 645 26 58 -7 136 -9 200 -6 234 15 230 19 153 -131 -61 -118 -123 -289 -142 -393 -14 -70 -32 -270 -26 -280 11 -18 -27 -48 -72 -55 -111 -16 -176 -44 -226 -98 -48 -51 -48 -51 -140 -57 -90 -6 -137 -20 -137 -41 0 -7 -19 -8 -53 -4 -115 15 -113 -140 2 -249 40 -39 42 -34 -38 -145 -84 -118 -135 -216 -158 -304 -22 -84 -14 -97 50 -78 62 19 240 32 249 18 12 -20 -4 -29 -42 -23 -100 16 -291 -448 -306 -743 -6 -105 3 -111 84 -56 56 38 61 21 29 -103 -61 -238 -72 -432 -30 -504 20 -34 57 -48 76 -29 43 43 57 14 72 -154 9 -98 18 -151 29 -167 21 -29 20 -53 -4 -163 -34 -158 -54 -295 -43 -306 7 -7 40 -2 97 12 126 31 124 39 37 -216 -44 -125 -32 -139 73 -89 99 47 105 34 62 -131 -28 -110 -36 -240 -13 -248 6 -2 34 4 60 14 26 11 52 19 57 19 16 0 11 -254 -5 -276 -35 -47 10 -107 77 -102 41 3 41 3 65 -71 60 -183 176 -271 232 -175 25 42 41 37 97 -31 77 -94 108 -60 103 112 -4 128 -4 128 61 128 79 0 81 7 55 187 -9 62 -17 122 -18 133 -2 18 6 21 66 26 37 3 72 10 78 16 8 8 13 240 6 298 -2 16 6 21 40 25 88 13 89 28 17 278 -51 176 -51 172 20 165 55 -6 55 -6 62 33 10 56 -3 284 -21 353 -8 33 -16 101 -18 152 -2 93 -2 93 60 119 34 14 67 30 73 36 11 11 -43 194 -87 293 -13 31 -35 108 -49 171 -42 194 -45 172 25 193 79 22 79 25 -6 207 -78 170 -91 232 -51 251 19 8 31 8 46 0 101 -54 141 75 52 170 -40 43 -69 105 -114 251 -43 138 -43 130 -5 165 73 66 77 124 14 183 -14 13 -41 49 -58 80 -18 30 -36 62 -42 71 -31 50 -64 121 -80 169 -29 91 -158 223 -244 251 -47 16 -51 22 -51 100 0 175 66 389 166 539 94 140 157 186 312 229 120 33 167 54 244 106 36 25 58 33 92 33 84 0 526 179 526 213 0 41 231 51 335 13 105 -37 181 -157 188 -295 2 -52 -65 -98 -178 -121 -55 -11 -66 -18 -137 -88 -126 -125 -129 -205 -14 -355 6 -8 -10 -52 -47 -127 -47 -98 -167 -468 -167 -516 0 -49 40 -44 119 13 69 50 83 33 50 -60 -19 -55 -33 -152 -83 -596 -20 -172 -20 -175 4 -199 20 -20 26 -20 122 -5 142 22 141 31 72 -521 -31 -248 -2 -326 95 -252 65 50 68 38 40 -171 -15 -110 -19 -179 -15 -235 11 -126 31 -135 116 -47 55 57 151 117 170 106 5 -3 20 -28 34 -55 14 -27 47 -78 74 -113 62 -81 82 -149 58 -195 -10 -20 -12 -33 -6 -37 16 -10 29 3 51 53 48 106 80 111 100 15 17 -82 40 -96 64 -39 18 42 19 93 3 170 -20 103 38 119 62 18 47 -196 47 -192 -33 -233 -34 -17 -73 -39 -87 -48 -14 -10 -46 -25 -73 -35 -66 -25 -77 -44 -77 -143 0 -45 5 -85 10 -88 20 -12 52 8 66 41 8 19 19 34 24 34 17 0 11 -55 -7 -71 -10 -9 -35 -36 -55 -60 -45 -55 -119 -97 -179 -101 -44 -3 -44 -3 -41 46 3 56 89 240 135 290 65 70 -16 85 -91 16 -57 -52 -75 -34 -37 39 26 49 51 204 38 237 -12 31 -42 15 -53 -28 -27 -103 -29 -107 -68 -113 -20 -3 -45 -8 -55 -10 -17 -3 -18 2 -12 58 7 77 -3 97 -39 77 -48 -25 -86 -249 -54 -310 21 -40 72 -40 93 0 43 84 68 -32 53 -250 -15 -217 2 -251 95 -189 26 17 53 29 61 26 15 -6 29 -125 30 -267 1 -110 27 -134 80 -73 24 28 24 28 30 -2 4 -16 11 -50 16 -75 5 -25 12 -75 15 -112 10 -104 66 -142 171 -119 58 13 94 8 94 -14 0 -8 18 -19 43 -26 23 -6 60 -22 83 -35 67 -39 128 -12 136 60 2 16 11 33 21 37 9 5 25 13 35 18 18 9 21 66 12 236 -5 80 -5 80 45 96 56 18 59 31 28 113 -42 111 -27 146 64 146 69 0 69 13 3 149 -52 107 -54 121 -16 121 68 0 74 49 24 201 -34 105 -33 129 7 129 82 0 87 114 15 311 -23 63 -23 65 46 85 31 9 58 23 61 32 8 20 -36 150 -87 257 -62 132 -61 137 18 150 23 4 42 12 42 19 0 42 -48 186 -92 273 -60 122 -60 123 32 153 89 29 90 42 6 218 -95 201 -100 229 -51 302 53 79 48 99 -70 270 -95 137 -98 157 -29 186 46 19 43 33 -25 122 -156 205 -184 273 -113 280 59 6 52 33 -35 147 -62 81 -118 188 -110 209 3 8 24 27 47 41 51 32 52 58 3 99 -91 75 -172 168 -230 261 -147 240 -239 303 -353 245 -60 -30 -66 -27 -91 48 -53 160 -87 206 -186 252 -74 34 -130 49 -185 50 -74 0 -37 50 167 224 44 38 112 97 150 131 39 34 102 89 142 123 39 34 79 72 87 83 22 32 202 185 266 227 30 19 102 72 160 118 93 72 116 86 201 113 53 18 108 42 121 54 13 12 57 51 98 86 44 37 85 82 98 107 12 24 23 44 25 44 1 0 33 11 71 25 38 14 114 36 170 50 55 14 157 50 226 79 289 124 327 130 322 49 -4 -60 6 -66 71 -38 83 34 128 22 179 -47 92 -126 122 -148 198 -148 117 0 187 36 225 115 30 60 40 69 95 80 43 9 70 32 70 59 0 69 91 93 190 52 24 -10 93 41 122 89 16 25 51 60 85 83 32 22 65 47 72 56 8 9 41 30 75 46 65 31 73 40 106 132 24 66 39 77 175 133 49 20 101 45 116 56 15 10 31 19 37 19 19 0 62 50 62 73 0 42 -24 52 -63 28 -39 -24 -67 -27 -67 -8 0 23 30 46 213 158 134 82 157 106 266 278 129 202 156 259 140 295 -18 38 -47 32 -95 -17 -22 -23 -72 -60 -110 -82 -38 -22 -89 -55 -113 -74 -24 -18 -68 -49 -97 -67 -57 -36 -74 -68 -55 -102 27 -50 94 -35 166 38 55 56 65 60 65 27 0 -24 -50 -90 -108 -141 -34 -30 -49 -40 -218 -149 -115 -74 -142 -106 -151 -177 -6 -51 -31 -70 -94 -70 -35 0 -106 -78 -135 -147 -37 -90 -41 -95 -77 -87 -26 5 -35 0 -86 -53 -37 -39 -71 -64 -96 -73 -72 -22 -85 -36 -85 -84 0 -71 -17 -76 -152 -45 -55 13 -57 12 -96 -15 -29 -20 -50 -27 -74 -24 -33 3 -33 3 -30 -49 3 -52 3 -52 -45 -66 -49 -14 -66 -34 -78 -89 -4 -22 -19 -34 -68 -58 -34 -17 -66 -35 -71 -41 -32 -30 -72 1 -151 119 -50 75 -69 85 -148 78 -68 -6 -68 -6 -53 15 49 71 -72 104 -216 59 -34 -11 -66 -20 -69 -20 -3 0 -21 24 -39 52 -39 63 -38 93 10 236 17 52 37 133 44 180 14 103 6 100 165 78 232 -33 562 -6 929 74 225 49 862 340 862 392 -1 40 -18 41 -77 4 -32 -20 -62 -36 -67 -36 -5 0 -83 -35 -175 -79 -461 -218 -1013 -320 -1475 -271 -109 11 -104 2 -56 96 22 43 78 158 124 254 46 96 114 218 150 270 66 97 164 256 251 410 26 47 63 105 82 129 39 52 42 77 8 93 -42 19 -66 -2 -119 -103 -71 -136 -136 -245 -305 -512 -35 -54 -81 -136 -103 -183 -57 -118 -59 -116 -78 64 -13 132 -22 152 -61 132 -29 -16 -1 -280 37 -338 13 -20 11 -30 -26 -122 -22 -55 -40 -114 -40 -130 0 -41 -11 -43 -56 -12 -160 109 -193 156 -203 295 -6 79 -7 82 -31 82 -32 0 -41 -131 -16 -219 18 -60 -2 -88 -59 -84 -33 3 -35 13 -20 90 6 32 4 42 -19 68 -32 39 -34 91 -6 138 26 43 25 65 -6 111 -48 74 -34 97 58 93 91 -4 77 -24 154 213 104 323 134 385 182 385 25 0 25 0 19 -126 -5 -129 6 -198 38 -232 27 -30 81 32 55 63 -6 8 -14 73 -17 154 -4 100 -10 144 -20 152 -22 19 -15 45 19 60 22 10 42 33 67 81 60 111 65 116 88 96 49 -44 83 -10 98 99 4 30 17 67 31 85 13 18 35 50 49 71 29 42 44 46 70 17 26 -28 30 -27 76 38 82 113 127 149 115 92 -18 -91 48 -106 105 -24 31 46 73 74 110 74 32 0 325 306 429 448 21 28 50 43 50 26 0 -6 -81 -127 -90 -134 -22 -16 -274 -411 -374 -586 -48 -85 -53 -103 -34 -122 8 -8 8 -15 1 -24 -28 -36 -72 -130 -66 -144 8 -21 45 -14 58 11 6 11 23 41 38 66 15 25 35 70 46 100 10 30 36 84 57 121 22 37 66 115 99 173 77 135 157 250 175 250 27 0 22 -37 -10 -81 -47 -66 9 -133 76 -89 62 40 63 30 9 -99 -49 -118 -55 -154 -27 -179 23 -21 41 -21 69 -2 39 27 35 -3 -13 -103 -71 -148 -67 -211 14 -212 41 0 47 -16 27 -71 -54 -143 -46 -172 43 -169 110 4 116 1 100 -58 -7 -25 -18 -37 -46 -49 -38 -15 -114 -72 -144 -108 -20 -23 -24 -117 -8 -159 26 -71 79 -83 153 -36 146 92 185 99 219 38 42 -77 58 -79 205 -30 192 65 272 61 176 -8 -76 -55 -110 -107 -85 -132 10 -10 75 24 127 65 6 4 26 18 45 30 53 35 88 128 60 162 -23 27 -176 20 -315 -15 -139 -35 -139 -35 -165 24 -31 74 -81 72 -230 -5 -92 -47 -110 -49 -110 -11 0 35 20 53 83 76 93 35 137 101 137 209 0 76 -35 111 -118 121 -44 5 -45 6 -33 71 13 72 0 106 -46 120 -42 12 -41 24 1 116 68 150 76 279 17 279 -55 0 -59 12 -28 97 62 170 63 172 46 201 -23 41 -61 41 -105 -2 -165 -160 58 305 253 527 60 68 72 101 47 128 -24 27 -45 24 -90 -14 -21 -19 -59 -46 -84 -62 -97 -60 -117 -80 -324 -330 -42 -51 -141 -159 -211 -231 -81 -82 -202 -138 -211 -96 -17 85 -36 79 -174 -49 -122 -112 -122 -112 -157 -100 -35 13 -35 13 -102 -61 -90 -97 -154 -175 -226 -277 -104 -146 -124 -157 -125 -71 0 19 -9 55 -20 79 -11 24 -20 56 -20 71 0 44 -25 58 -55 30 -37 -35 -44 -19 -38 83 9 173 -24 251 -102 240 -42 -5 -42 -5 -48 73 -15 212 -68 275 -145 174 -40 -52 -62 -62 -62 -28 -1 127 -88 298 -145 284 -33 -8 -38 3 -80 164 -79 307 -110 397 -147 428 -24 19 -62 30 -83 22zm65 -203c12 -40 39 -135 60 -212 51 -186 79 -248 133 -284 90 -62 117 -121 117 -255 0 -87 12 -102 62 -73 47 27 44 1 -13 -108 -53 -102 -65 -125 -140 -255 -23 -41 -72 -127 -109 -190 -78 -137 -88 -141 -110 -40 -9 41 -20 87 -24 101 -6 20 -2 33 17 55 49 59 177 293 177 324 0 38 -27 52 -47 24 -32 -44 -95 -153 -118 -201 -38 -81 -56 -69 -81 55 -5 25 -1 38 19 62 45 52 139 229 135 253 -8 56 -50 27 -103 -70 -57 -105 -66 -111 -82 -63 -24 71 -17 117 27 172 53 67 92 151 88 191 -5 50 -20 38 -64 -51 -72 -147 -79 -146 -110 15 -30 154 -30 159 10 203 51 57 76 136 88 280 14 180 29 195 68 67zm-356 -237c35 -13 33 -25 -10 -65 -49 -46 -48 -120 1 -120 23 0 30 5 35 25 17 73 59 -20 96 -215 33 -175 56 -277 68 -313 10 -27 11 -44 4 -56 -14 -25 -3 -84 39 -206 20 -58 37 -121 38 -140 2 -19 12 -71 23 -115 11 -44 30 -138 42 -210 12 -71 32 -186 46 -255 13 -69 28 -183 34 -255 6 -71 15 -159 20 -195 5 -36 12 -112 15 -170 3 -58 10 -134 15 -170 5 -36 12 -111 15 -167 3 -56 12 -137 19 -180 17 -96 11 -107 -45 -88 -56 20 -76 10 -193 -104 -109 -106 -108 -105 -240 -116 -44 -4 -104 -13 -133 -21 -91 -24 -102 -21 -100 25 2 53 -12 66 -96 91 -92 27 -299 118 -334 145 -34 28 -27 38 49 65 155 57 182 104 78 135 -58 18 -318 157 -332 179 -4 5 10 24 30 41 58 51 25 153 -91 281 -49 54 -49 74 3 74 118 1 157 90 83 187 -37 49 -37 68 2 83 88 34 82 208 -12 312 -20 23 -11 34 36 42 85 13 119 125 85 278 -5 23 -1 29 38 52 70 41 108 170 108 373 0 110 8 139 33 114 59 -59 157 104 157 263 0 39 15 46 50 24 16 -10 23 -9 45 12 32 30 32 58 -1 70 -36 14 -25 35 20 36 46 1 53 9 102 104 78 154 98 173 158 150zm863 -552c4 -7 8 -73 8 -147 0 -163 14 -187 78 -132 60 53 64 43 58 -145 -3 -87 6 -115 55 -173 26 -32 26 -32 -29 -89 -72 -73 -102 -114 -241 -321 -183 -271 -288 -407 -307 -395 -5 3 -9 29 -9 57 -1 29 -5 72 -10 97 -9 45 -9 45 74 130 45 47 116 132 156 190 41 58 113 157 161 220 118 157 124 171 89 190 -25 13 -40 -3 -188 -204 -125 -171 -252 -330 -285 -359 -28 -25 -34 -14 -45 83 -10 85 -10 85 38 128 85 75 184 209 174 236 -11 29 -31 17 -82 -46 -76 -95 -128 -148 -146 -148 -23 0 -20 10 12 50 140 173 350 554 387 700 21 86 23 90 34 90 5 0 13 -6 18 -12zm296 -644c21 -103 22 -99 -26 -161 -69 -90 -148 -273 -212 -495 -21 -73 -27 -76 -59 -28 -14 22 -34 40 -43 40 -19 0 -82 -64 -103 -106 -34 -67 -174 -274 -185 -274 -16 0 -25 45 -25 119 0 55 1 57 54 108 30 29 88 101 129 161 41 59 97 137 124 172 27 36 81 112 119 170 39 58 95 139 126 182 37 51 57 90 62 118 8 51 28 49 39 -6zm-456 -1046c10 -59 9 -65 -12 -88 -12 -14 -44 -62 -70 -108 -56 -99 -66 -99 -82 -1 -12 69 -12 76 7 99 11 14 34 45 51 70 77 109 91 113 106 28zm37 -172c7 -26 6 -47 -3 -72 -10 -29 -10 -41 0 -66 10 -26 10 -32 -2 -42 -8 -6 -43 -46 -78 -89 -75 -92 -84 -92 -92 -1 -7 72 2 97 40 109 21 6 91 124 91 153 0 60 30 66 44 8zm284 -164c11 -75 -137 -342 -277 -502 -157 -177 -168 -176 -151 20 13 160 11 155 68 176 77 29 131 74 185 154 124 185 166 220 175 152zm-198 -21c0 -32 -123 -191 -137 -178 -4 5 46 98 93 175 18 27 44 29 44 3zm334 -74c17 -12 17 -16 -2 -83 -11 -38 -40 -143 -63 -234 -64 -245 -70 -253 -268 -321 -122 -42 -122 -15 -1 136 85 106 142 207 221 388 56 129 71 144 113 114zm-3964 -284c101 -196 269 -379 506 -553 153 -112 264 -209 417 -363 147 -148 177 -168 177 -115 0 49 -194 273 -249 287 -18 5 -27 15 -29 33 -2 16 -13 30 -31 39 -16 8 -69 49 -118 91 -123 107 -168 138 -200 138 -47 0 -288 257 -367 393 -33 57 -30 57 81 10 49 -20 133 -47 188 -60 54 -13 106 -30 115 -38 45 -41 120 -26 120 25 0 39 224 -119 307 -217 102 -119 165 -173 204 -173 25 0 99 -116 99 -156 0 -11 93 -228 103 -242 7 -8 21 -11 40 -6 30 6 30 6 24 -62 -6 -72 -41 -184 -60 -196 -15 -9 -88 62 -130 125 -23 35 -36 47 -51 45 -34 -5 -34 -69 0 -113 38 -50 33 -54 -142 -124 -157 -64 -157 -64 -303 -58 -155 6 -221 19 -221 42 0 8 5 15 10 15 27 0 9 49 -22 62 -90 36 -288 141 -308 163 -23 24 -23 24 6 35 48 17 59 26 62 53 4 33 -37 98 -85 134 -79 60 -110 96 -117 140 -4 27 -13 46 -26 53 -29 15 -25 29 13 45 56 25 71 42 70 80 -1 45 7 44 77 -9 98 -75 194 -111 225 -86 26 21 17 41 -27 58 -24 9 -97 43 -162 75 -93 46 -125 58 -148 53 -25 -5 -36 0 -65 29 -40 40 -36 55 12 55 74 0 82 22 35 97 -56 90 -106 273 -75 273 3 0 23 -35 45 -77zm3924 -328c10 -28 -66 -73 -174 -104 -25 -7 -53 -17 -62 -22 -10 -5 -26 -9 -36 -9 -10 0 -22 -4 -27 -8 -15 -13 -89 -32 -125 -32 -44 0 -24 25 34 41 133 37 259 89 330 138 30 20 51 19 60 -4zm-804 -177c4 -35 17 -85 28 -111 25 -56 17 -87 -23 -87 -26 0 -55 43 -69 103 -13 56 -73 13 -61 -45 8 -44 36 -108 47 -108 10 0 11 -27 0 -34 -5 -3 -27 4 -50 15 -56 28 -72 20 -72 -33 0 -65 -57 -111 -92 -73 -60 65 -134 25 -94 -50 21 -39 16 -65 -13 -65 -12 0 -23 11 -30 30 -9 27 -12 29 -35 19 -31 -14 -39 -45 -21 -81 16 -32 5 -44 -26 -28 -28 15 -58 -10 -52 -43 4 -18 -4 -30 -34 -52 -21 -16 -65 -55 -98 -86 -33 -31 -82 -68 -110 -82 -29 -15 -73 -53 -105 -88 -81 -92 -110 -119 -129 -119 -9 0 -29 -16 -44 -35 -33 -41 -57 -46 -57 -10 0 29 -30 35 -51 9 -11 -14 -10 -19 9 -34 32 -27 28 -34 -43 -86 -36 -25 -70 -54 -75 -65 -6 -10 -29 -27 -53 -37 -54 -24 -71 -45 -64 -79 11 -59 -24 -80 -63 -38 -53 56 -127 9 -117 -75 8 -65 -50 -100 -66 -40 -8 30 -52 53 -76 40 -33 -17 -28 -66 9 -85 50 -26 41 -39 -32 -50 -67 -10 -85 17 -64 98 23 89 52 115 276 243 108 63 292 185 340 226 25 21 118 93 208 159 180 134 220 171 365 337 55 62 108 119 120 127 73 51 347 324 380 378 45 74 102 125 121 107 4 -5 12 -37 16 -72zm-1746 -847c27 -92 -13 -244 -92 -349 -45 -62 -50 -22 -6 64 50 99 61 241 25 332 -12 30 -18 58 -14 65 11 17 72 -61 87 -112zm-1384 -416c60 -31 65 -78 14 -135 -63 -69 -150 -63 -168 13 -23 91 71 165 154 122zm1038 -167c21 -27 23 -74 4 -98 -37 -45 -227 -32 -227 16 0 44 195 115 223 82zm190 -91c2 -10 -2 -24 -8 -32 -16 -19 -50 -2 -50 25 0 33 52 39 58 7zm-475 -86c34 -21 77 -42 95 -46 33 -7 33 -7 30 -63 -4 -68 -15 -70 -47 -8 -37 72 -106 34 -72 -40 16 -35 14 -44 -9 -44 -25 0 -67 45 -81 87 -23 70 -107 7 -92 -69 10 -49 -37 -38 -62 14 -29 60 -47 68 -96 41 -40 -22 -40 -22 -75 -2 -62 34 -99 6 -76 -60 25 -70 -81 -80 -142 -13 -49 54 -85 55 -98 5 -14 -53 -78 -45 -78 9 0 12 -7 30 -17 40 -29 33 -83 17 -83 -24 0 -22 -27 -23 -54 -3 -23 18 -61 19 -104 4 -28 -10 -35 -8 -62 14 -58 49 -100 43 -100 -14 0 -30 -16 -37 -105 -42 -38 -2 -40 0 -62 46 -15 31 -29 47 -42 47 -42 0 -58 -65 -26 -113 18 -28 9 -40 -36 -50 -29 -7 -47 4 -72 46 -32 50 -103 22 -91 -37 5 -31 3 -34 -27 -45 -73 -25 -109 -11 -125 51 -10 42 -11 43 -52 42 -79 -1 -110 -61 -47 -91 53 -25 40 -44 -39 -56 -46 -7 -73 5 -86 39 -26 68 -140 1 -117 -69 11 -34 9 -36 -36 -44 -30 -4 -40 -1 -63 22 -15 15 -40 32 -57 38 -30 10 -30 10 -3 24 33 18 33 61 0 74 -44 16 -85 -46 -52 -79 9 -9 8 -16 -5 -30 -23 -25 -21 -37 8 -50 46 -21 25 -42 -44 -42 -73 0 -102 46 -56 90 61 58 -25 95 -102 45 -30 -20 -29 -52 3 -112 25 -48 25 -48 3 -66 -34 -28 -81 -19 -90 16 -8 32 -102 127 -124 127 -51 0 -47 -59 7 -116 48 -51 20 -82 -67 -75 -27 3 -71 55 -91 108 -25 65 -7 86 98 111 46 11 117 29 158 41 41 12 161 39 267 60 105 22 256 58 335 80 307 86 360 99 522 130 129 25 180 26 301 7 385 -62 795 -39 1045 57 92 36 119 34 193 -12zm286 -30c23 -15 5 -41 -29 -41 -22 0 -30 5 -30 18 0 32 28 42 59 23zm182 -12c26 -14 15 -29 -22 -29 -31 0 -36 9 -17 28 15 15 15 15 39 1zm1263 -230c36 -28 33 -46 -11 -66 -36 -17 -87 -114 -150 -282 -15 -42 -133 -50 -133 -8 2 92 48 269 79 301 69 71 164 96 215 55zm-319 -151c-4 -18 -11 -39 -15 -48 -139 -301 -244 -381 -315 -240 -40 78 -36 91 57 186 116 119 160 127 113 19 -14 -32 -25 -66 -23 -77 6 -35 45 7 65 69 29 93 136 175 118 91zm399 -128c58 -110 74 -164 57 -189 -13 -20 -51 -4 -51 21 0 27 -17 82 -41 131 -32 66 2 101 35 37zm158 -60c37 -46 41 -63 16 -68 -27 -5 -68 42 -68 78 0 40 12 38 52 -10zm-219 -103c12 -22 16 -43 12 -60 -7 -28 21 -174 37 -191 4 -6 8 -16 8 -24 0 -8 7 -29 16 -48 20 -42 12 -68 -19 -61 -83 20 -186 65 -215 94 -20 20 -35 16 -57 -16 -21 -32 -45 -27 -45 10 0 10 -11 53 -23 96 -52 170 -52 190 -1 177 15 -4 53 -8 83 -8 55 -1 55 -1 67 -86 17 -129 23 -150 47 -159 53 -20 59 16 27 159 -11 49 -17 97 -13 107 19 53 51 57 76 10zm-394 -128c12 -23 25 -70 28 -105 4 -43 10 -64 19 -64 24 0 29 -25 34 -180 5 -147 6 -155 25 -155 18 0 20 8 25 110 5 112 11 135 34 135 31 0 41 -33 42 -140 2 -146 10 -190 35 -190 38 0 54 127 34 268 -6 49 -5 52 14 52 42 0 61 -53 61 -170 0 -146 -3 -150 -144 -211 -50 -21 -58 -22 -186 -3 -31 5 -38 2 -50 -21 -12 -22 -16 -24 -25 -12 -5 7 -21 19 -33 26 -26 14 -75 111 -70 138 2 9 23 30 47 47 63 45 80 72 87 141 10 107 -38 129 -66 30 -10 -36 -21 -50 -65 -79 -29 -19 -65 -51 -80 -69 -40 -54 -153 -82 -148 -37 13 134 175 476 229 486 53 10 52 2 -5 -111 -48 -96 -58 -135 -32 -135 22 0 102 97 111 135 6 22 18 60 26 85 9 25 17 51 20 58 6 19 10 15 33 -29zm561 -40c16 -57 10 -94 -14 -94 -24 0 -52 101 -34 123 19 23 37 12 48 -29zm161 -178c7 -20 18 -40 26 -44 7 -5 11 -12 8 -18 -9 -14 -25 -11 -25 6 0 8 -7 15 -15 15 -8 0 -15 -7 -15 -15 0 -9 7 -18 15 -21 17 -7 20 -40 5 -49 -6 -3 -14 5 -20 19 -12 34 -26 33 -34 -1 -3 -17 -21 -39 -46 -56 -23 -15 -38 -32 -35 -38 14 -21 -4 -44 -19 -24 -10 14 -17 15 -33 7 -15 -8 -25 -7 -41 4 -22 15 -30 44 -13 44 4 0 20 17 33 38 14 20 38 50 52 66 20 20 24 32 17 39 -18 18 -13 36 8 30 13 -3 21 2 25 15 4 11 13 23 21 26 17 6 20 36 4 36 -5 0 -7 4 -4 10 10 16 73 -50 86 -89zm49 -200c0 -9 9 -27 20 -41 11 -14 20 -28 20 -31 0 -4 17 -36 38 -70 50 -84 53 -93 36 -118 -19 -26 -44 -27 -44 -3 0 11 -11 39 -25 63 -89 158 -107 202 -96 227 13 27 51 8 51 -27zm-2586 -54c26 -34 34 -71 17 -81 -15 -10 -35 3 -52 33 -21 36 -60 46 -120 31 -24 -6 -55 -14 -69 -17 -14 -3 -48 -21 -77 -39 -54 -35 -63 -34 -63 2 0 25 39 58 80 67 14 3 48 12 75 20 97 29 180 22 209 -16zm2490 -66c18 -36 45 -86 59 -111 44 -74 28 -108 -31 -67 -35 25 -54 59 -83 146 -39 122 -1 145 55 32zm-2350 30c27 -29 28 -29 8 -40 -28 -15 -28 -15 -52 19 -37 53 -2 69 44 21zm2186 -61c14 0 24 -90 11 -103 -16 -16 -14 -47 4 -47 9 0 18 7 21 15 4 8 11 15 16 15 6 0 3 -11 -6 -25 -15 -23 -15 -25 4 -35 13 -7 20 -21 20 -38 -1 -25 -2 -25 -14 -9 -19 25 -39 22 -31 -5 4 -13 11 -27 16 -32 12 -13 12 -36 0 -36 -5 0 -12 8 -15 18 -7 20 -84 102 -111 118 -34 19 -30 50 14 92 31 30 39 44 34 62 -5 19 -3 22 11 17 10 -4 21 -7 26 -7zm-2765 -30c19 -30 -132 -180 -180 -180 -44 0 -137 102 -119 131 3 6 17 9 31 6 17 -3 31 2 44 17 26 27 210 49 224 26zm220 0c4 -6 -3 -35 -16 -64 -23 -56 -21 -86 5 -86 20 0 42 44 51 102 8 55 24 65 59 37 31 -24 34 -72 11 -138 -8 -23 -17 -65 -21 -92 -8 -57 -55 -135 -124 -206 -104 -108 -299 -12 -300 147 0 69 308 344 335 300zm1848 -45c17 -28 33 -66 37 -85 6 -35 6 -35 53 -33 43 3 47 1 53 -23 8 -32 -12 -256 -32 -346 -18 -85 -18 -98 1 -98 47 0 83 93 106 269 6 47 13 100 15 117 5 36 19 42 82 36 48 -5 52 -20 33 -133 -21 -121 -21 -139 1 -150 33 -18 44 4 62 133 23 156 31 178 64 178 24 0 25 -1 19 -52 -32 -276 -33 -281 -116 -332 -66 -40 -121 -97 -150 -155 -41 -79 -119 -97 -165 -39 -25 32 -25 32 -115 30 -106 -3 -98 -19 -80 177 52 561 66 617 132 506zm612 -125c22 0 28 -42 16 -100 -6 -28 -11 -64 -11 -79 0 -41 -31 -78 -48 -58 -10 11 -10 29 0 83 6 38 12 95 12 127 0 38 3 53 8 42 5 -8 15 -15 23 -15zm251 -2c9 -14 -25 -58 -45 -58 -11 0 -22 -6 -24 -12 -4 -10 -8 -9 -16 2 -8 11 -7 16 4 18 8 2 15 13 15 26 0 39 46 56 66 24zm-2468 -13c4 -27 40 -101 74 -152 15 -23 28 -45 29 -50 0 -4 16 -28 34 -53 67 -88 80 -140 37 -140 -13 0 -29 19 -51 58 -52 95 -93 166 -101 177 -46 57 -82 160 -63 179 13 12 38 1 41 -19zm168 11c16 -8 42 -20 59 -26 29 -11 29 -11 0 -35 -35 -28 -35 -28 -69 -15 -27 10 -69 67 -60 82 8 12 38 10 70 -6zm2560 -83c17 -56 85 -198 105 -217 19 -20 9 -55 -18 -70 -16 -8 -50 -38 -77 -66 -69 -72 -81 -67 -128 50 -21 52 -55 130 -75 172 -41 88 -36 112 21 106 28 -3 35 -12 89 -118 63 -127 85 -154 110 -144 35 13 19 86 -43 204 -68 128 -65 121 -49 131 32 20 47 10 65 -48zm-3379 -84c7 -41 22 -92 34 -115 22 -41 22 -41 -27 -92 -27 -27 -57 -60 -66 -71 -19 -22 -99 -30 -127 -12 -23 14 -6 76 40 155 56 95 84 148 98 186 17 50 35 31 48 -51zm3060 -1c5 -7 24 -49 42 -93 52 -128 71 -168 97 -206 31 -46 24 -71 -19 -67 -23 2 -32 9 -37 28 -7 25 -25 66 -85 195 -36 76 -50 129 -40 145 9 14 31 13 42 -2zm-2125 -130c-33 -33 -66 20 -35 54 18 20 18 20 31 -12 8 -21 10 -36 4 -42zm-304 14c3 -31 2 -33 -25 -30 -28 3 -40 25 -29 54 12 30 51 12 54 -24zm-158 -169c0 -103 4 -145 15 -167 24 -46 20 -56 -24 -56 -95 0 -116 27 -92 119 6 20 17 63 25 96 36 144 36 145 56 145 19 0 20 -8 20 -137zm2407 22c26 -213 13 -283 -70 -372 -49 -54 -140 -1 -173 102 -9 28 -22 64 -30 82 -25 56 -28 51 108 152 27 20 31 9 32 -68 1 -72 14 -101 47 -101 36 0 43 39 30 166 -12 122 -7 149 28 142 12 -3 19 -27 28 -103zm-2702 51c18 -13 18 -16 2 -73 -21 -72 -21 -103 -3 -128 22 -30 59 -8 75 46 24 81 40 111 59 107 21 -4 20 -16 -6 -136 -24 -112 -12 -99 -141 -162 -128 -63 -124 -66 -119 102 6 206 57 300 133 244zm512 -5c35 -41 48 -131 18 -131 -2 0 -11 -3 -19 -6 -22 -8 -46 51 -46 111 0 50 17 60 47 26zm-98 -107c8 -55 7 -60 -20 -86 -40 -41 -53 -37 -45 15 4 23 9 62 12 87 11 95 39 86 53 -16zm2441 -11c0 -12 5 -25 10 -28 6 -3 10 -17 10 -31 0 -13 5 -24 10 -24 30 0 -12 -101 -47 -114 -30 -12 -43 14 -32 64 6 25 8 77 5 116 -4 38 -3 73 1 78 10 10 43 -35 43 -61zm-2102 -2c4 -42 -7 -54 -42 -45 -31 7 -36 49 -8 70 28 22 47 12 50 -25zm2480 -121c3 -23 11 -51 32 -105 4 -11 22 -50 40 -87 37 -74 35 -101 -6 -96 -27 3 -60 72 -78 160 -4 18 -18 50 -31 70 -38 58 -33 91 15 86 18 -2 26 -10 28 -28zm-2634 14c9 -3 16 -17 16 -31 0 -14 16 -59 35 -100 46 -95 42 -113 -25 -113 -62 0 -77 20 -55 74 20 46 19 66 -5 96 -40 51 -20 95 34 74zm140 -46c9 -17 16 -39 16 -49 0 -10 5 -21 10 -24 6 -3 10 -17 10 -31 0 -13 5 -24 10 -24 6 0 10 -12 10 -26 0 -36 -43 -31 -48 6 -2 14 -8 29 -13 35 -5 5 -9 19 -9 31 0 13 -4 26 -10 29 -13 8 -13 85 -1 85 5 0 17 -14 25 -32zm-947 -134c-3 -74 -15 -159 -28 -214 -25 -102 -20 -121 28 -104 30 10 43 39 63 137 9 47 17 60 40 72 45 24 51 5 29 -105 -20 -106 -18 -133 13 -128 41 6 88 163 88 295 0 46 31 78 67 71 22 -4 22 -14 -8 -187 -18 -105 -20 -137 -11 -152 17 -26 17 -26 -34 -59 -44 -28 -121 -49 -249 -69 -33 -5 -99 -17 -147 -27 -48 -10 -90 -15 -94 -11 -7 7 44 211 75 297 31 87 110 292 113 295 54 42 62 26 55 -111zm3261 116c10 -11 29 -50 42 -87 25 -74 51 -136 81 -196 28 -57 25 -77 -10 -77 -27 0 -32 6 -61 78 -17 42 -49 114 -71 160 -56 118 -45 191 19 122zm-701 -2c6 -7 16 -30 22 -50 7 -20 19 -42 27 -49 13 -11 15 -37 13 -156 -3 -124 -1 -145 13 -160 36 -35 71 36 80 162 3 35 6 40 29 43 40 5 51 -16 39 -74 -6 -27 -14 -74 -19 -105 -14 -85 -22 -94 -134 -148 -56 -28 -113 -59 -127 -70 -18 -15 -43 -21 -95 -23 -70 -3 -70 -3 -68 85 0 48 7 127 13 174 7 48 15 141 19 207 7 131 9 136 67 122 22 -6 25 -11 23 -49 -1 -23 3 -51 10 -62 11 -17 10 -50 -2 -175 -14 -154 -11 -190 17 -190 42 0 69 235 51 438 -8 90 -2 111 22 80zm-2082 -97c5 -9 -14 -132 -31 -201 -13 -55 -47 -109 -76 -121 -38 -16 -44 -7 -24 34 17 37 50 172 61 250 6 46 50 70 70 38zm138 -21c-5 -69 -17 -131 -24 -136 -5 -3 -9 -22 -9 -43 0 -40 -21 -68 -41 -56 -7 5 -8 19 -5 39 13 63 27 142 30 171 2 17 4 36 4 43 4 27 47 9 45 -18zm2528 13c8 -10 21 -36 28 -58 23 -68 49 -118 91 -173 48 -63 48 -66 8 -86 -54 -28 -62 -19 -119 128 -11 28 -29 70 -39 93 -38 81 -14 151 31 96zm-89 -195c11 -29 23 -66 27 -83 4 -16 18 -49 29 -72 34 -65 18 -126 -45 -176 -13 -11 -23 -30 -23 -45 -1 -32 -13 -50 -58 -81 -43 -30 -44 -29 -86 120 -43 151 -43 138 -7 222 50 119 63 116 80 -17 6 -50 16 -93 23 -98 62 -39 78 86 25 192 -26 52 -34 99 -20 114 12 11 35 -20 55 -76zm-2282 41c0 -7 -15 -26 -34 -44 -22 -21 -37 -46 -42 -71 -7 -36 -8 -37 -14 -14 -9 36 20 110 42 110 10 0 21 7 24 15 7 18 24 20 24 4zm230 -56c0 -31 14 -82 41 -151 44 -114 47 -155 12 -160 -18 -3 -23 2 -23 18 0 34 -39 139 -86 233 -55 109 -55 107 6 107 50 0 50 0 50 -47zm-183 -1c7 -4 19 -28 28 -52 9 -25 30 -74 47 -110 62 -128 68 -142 68 -155 0 -8 9 -17 20 -20 38 -12 15 -85 -26 -85 -15 0 -24 17 -42 72 -13 40 -50 126 -83 192 -32 66 -59 127 -59 136 0 29 21 38 47 22zm-233 -118c18 -7 22 -54 7 -82 -5 -9 -15 -37 -21 -62 -7 -25 -16 -56 -20 -70 -4 -14 -13 -52 -20 -85 -6 -33 -18 -75 -26 -93 -8 -18 -14 -41 -14 -51 0 -29 -57 -151 -74 -157 -54 -21 -208 104 -304 245 -70 103 -75 121 -34 121 15 0 59 12 97 25 39 14 73 25 78 25 4 0 4 -37 1 -83 -8 -97 8 -131 49 -104 26 17 33 42 42 156 7 88 8 93 40 116 42 33 70 34 60 3 -46 -145 -54 -221 -30 -268 31 -60 75 -18 75 70 0 14 7 57 15 95 8 39 15 92 15 118 0 74 19 98 64 81zm2904 -38c46 -15 6 -72 -42 -60 -26 6 -53 40 -42 51 13 14 51 29 56 22 3 -3 15 -9 28 -13zm-2704 -114c17 -52 44 -113 91 -202 13 -25 24 -57 25 -72 0 -30 -77 -198 -91 -198 -4 0 -26 -18 -48 -41 -40 -42 -58 -40 -42 5 10 26 -9 85 -66 203 -27 56 -26 109 1 132 16 13 46 -10 46 -35 0 -56 80 -158 109 -140 27 17 5 137 -33 183 -56 69 -81 174 -51 219 22 33 35 21 59 -54zm2568 1c65 -106 79 -160 49 -187 -22 -20 -35 -8 -47 39 -4 17 -22 60 -41 97 -19 37 -32 72 -28 78 13 21 44 9 67 -27zm129 -2c-23 -17 -15 -41 9 -26 39 24 67 -36 31 -67 -19 -16 -20 -16 -27 4 -6 21 -16 35 -40 61 -16 16 5 47 31 47 19 0 18 -2 -4 -19zm-677 -17c6 -17 40 -184 51 -251 9 -56 27 -71 68 -54 61 24 64 24 83 -8 40 -68 101 -28 91 61 -5 40 -3 49 12 58 19 9 51 -13 51 -36 0 -5 18 -31 40 -58 22 -26 40 -50 40 -53 0 -19 -133 -139 -175 -158 -64 -28 -92 -55 -139 -132 -50 -84 -45 -86 -140 56 -66 98 -73 122 -57 168 24 65 26 143 5 143 -24 -1 -110 -109 -119 -149 -7 -34 -44 -51 -111 -51 -56 0 -57 3 -38 101 19 102 19 101 10 170 -8 66 2 82 62 99 20 5 59 25 86 45 74 52 75 51 78 -72 2 -87 6 -108 18 -111 24 -4 49 103 43 183 -5 65 22 98 41 49zm456 -107c20 -37 46 -77 58 -90 20 -21 20 -23 3 -46 -25 -33 -43 -23 -76 41 -15 29 -33 60 -39 68 -42 54 -44 104 -4 98 15 -2 33 -23 58 -71zm-3290 18c7 -9 23 -37 35 -63 12 -26 36 -64 54 -86 40 -50 39 -65 -13 -188 -24 -57 -47 -113 -50 -125 -6 -19 -15 -23 -50 -23 -23 0 -60 -9 -81 -20 -76 -39 -81 -1 -30 260 13 69 28 152 32 185 8 56 10 60 38 66 47 10 52 10 65 -6zm3562 -225c7 -16 16 -30 20 -30 5 0 8 -6 8 -14 0 -7 9 -25 21 -40 26 -32 23 -81 -5 -81 -14 0 -23 13 -35 50 -9 28 -26 70 -38 93 -28 52 -28 52 -4 52 12 0 25 -12 33 -30zm-2932 -65c0 -23 47 -115 74 -146 48 -54 23 -102 -74 -139 -19 -8 -48 -24 -63 -37 -41 -34 -71 -30 -96 12 -27 46 -63 49 -63 5 0 -3 3 -25 6 -50 9 -64 -3 -76 -104 -95 -136 -25 -170 -36 -223 -72 -72 -48 -73 -47 -82 65 -13 159 -14 154 22 177 32 20 143 229 143 268 0 25 28 33 44 12 7 -10 16 -61 20 -114 8 -109 24 -148 56 -131 11 6 22 26 25 48 13 73 13 74 40 56 15 -10 27 -30 31 -52 13 -70 54 -89 54 -24 0 60 10 82 35 82 21 0 45 -34 45 -63 0 -17 48 -67 64 -67 32 0 34 71 6 161 -20 63 -20 100 2 127 12 14 38 -1 38 -23zm2830 -7c17 -46 34 -82 41 -88 15 -13 18 -71 4 -76 -17 -7 -34 9 -55 51 -8 17 -22 42 -32 57 -21 30 -23 59 -6 76 20 20 35 14 48 -20zm-2399 1c-13 -46 -12 -74 2 -56 20 24 24 22 30 -20 4 -20 20 -53 37 -74 39 -49 39 -68 -1 -35 -17 14 -35 26 -40 26 -5 0 -9 8 -10 18 0 14 -2 14 -9 -3 -13 -29 -12 -32 10 -38 28 -7 42 -48 24 -67 -12 -12 -18 -12 -34 -2 -16 10 -21 9 -29 -6 -9 -14 -10 -13 -11 11 0 15 5 27 10 27 23 0 8 25 -16 27 -56 3 -73 82 -24 116 10 7 25 32 32 55 11 37 39 57 29 21zm2313 -141c60 -81 60 -94 1 -90 -74 6 -121 87 -78 134 23 26 25 25 77 -44zm-2383 -143c36 -62 4 -183 -34 -124 -16 26 -30 121 -20 145 8 23 34 13 54 -21zm-123 -117c19 -111 18 -128 -10 -150 -29 -22 -54 -19 -49 7 2 11 4 65 5 120 3 156 29 167 54 23zm2675 70c19 16 27 5 27 -34 0 -18 5 -45 12 -59 9 -21 9 -29 -3 -41 -24 -23 -48 -7 -56 39 -3 22 -14 48 -24 58 -24 24 -15 53 11 37 14 -9 22 -9 33 0zm-2810 -168c-1 -63 -2 -118 -3 -121 0 -6 -67 -39 -80 -39 -6 0 -10 48 -10 117 0 116 0 118 28 140 57 47 67 32 65 -97zm2683 102c11 -7 14 -19 34 -111 16 -70 -17 -117 -39 -58 -45 118 -42 201 5 169zm-2863 -94c2 -7 0 -42 -5 -78 -5 -36 -7 -77 -4 -93 4 -20 -6 -45 -39 -101 -86 -140 -114 -158 -362 -220 -165 -42 -157 -51 -112 132 43 178 68 226 139 262 81 41 84 31 35 -113 -36 -106 -41 -132 -26 -141 30 -19 67 40 101 159 25 86 44 115 75 115 31 0 31 -5 5 -132 -22 -111 -19 -130 18 -126 37 4 88 134 108 271 9 63 52 104 67 65zm2777 -63c0 -81 -141 -274 -201 -275 -27 0 -119 66 -119 85 0 17 116 104 172 129 30 13 62 35 71 49 42 64 77 70 77 12zm-2281 -32c-7 -10 -21 -25 -31 -33 -18 -15 -18 -19 3 -110 39 -181 40 -182 28 -197 -15 -18 -52 12 -44 36 2 9 -5 52 -16 96 -32 121 -34 146 -15 157 9 5 16 16 16 23 0 8 6 15 14 15 7 0 19 7 26 15 18 21 35 19 19 -2zm2401 -135c7 -33 7 -33 15 5 8 39 25 51 25 18 0 -11 9 -23 20 -26 22 -7 26 -25 8 -43 -9 -9 -8 -18 2 -38 13 -23 13 -27 -3 -39 -9 -7 -17 -20 -17 -29 0 -9 -4 -16 -10 -16 -5 0 -10 -5 -10 -12 0 -18 33 -88 42 -88 20 0 7 -48 -14 -54 -23 -6 -23 -7 5 -22 35 -19 32 -48 -6 -52 -23 -3 -27 0 -27 22 0 17 -6 26 -15 26 -11 0 -14 -7 -9 -25 3 -14 1 -32 -6 -40 -6 -8 -9 -22 -6 -32 12 -38 -135 -143 -156 -111 -12 20 -4 33 25 36 40 5 32 22 -10 23 -21 0 -32 3 -25 6 6 2 12 11 12 19 0 8 7 29 16 46 15 29 15 32 0 43 -18 13 -22 45 -6 45 6 0 10 -5 10 -11 0 -37 19 13 29 78 7 43 14 86 16 95 2 10 -1 21 -6 24 -12 7 -11 65 1 84 8 13 13 13 30 2 29 -18 38 -8 38 43 0 72 18 85 32 23zm-2544 -73c34 -117 33 -141 -13 -160 -45 -19 -44 -20 -66 78 -27 121 -27 139 3 154 42 22 52 12 76 -72zm-170 -85c18 -75 17 -120 -2 -166 -35 -84 -54 -77 -54 19 0 60 -16 145 -31 161 -14 16 22 47 50 44 21 -3 26 -11 37 -58zm2552 -32c-4 -46 -48 -55 -48 -10 0 34 6 42 32 42 16 0 19 -6 16 -32zm-196 -23c34 -29 54 -31 94 -10 65 33 51 -22 -38 -152 -24 -34 -61 -91 -83 -127 -47 -78 -75 -88 -75 -27 0 69 -57 64 -78 -7 -30 -98 -68 -58 -74 75 -5 103 4 133 38 133 6 0 27 16 49 35 49 45 65 40 65 -22 0 -61 12 -82 37 -67 15 10 18 25 17 103 -2 99 2 105 48 66zm-2501 -103c10 -80 14 -85 54 -79 43 7 45 -6 8 -38 -16 -13 -50 -42 -76 -64 -53 -45 -77 -52 -77 -21 0 23 -22 105 -45 173 -23 64 -17 75 47 80 85 6 82 7 89 -51zm-214 -62c24 -129 22 -134 -56 -179 -64 -38 -71 -39 -107 -30 -74 21 -76 24 -57 71 9 22 21 66 28 97 11 56 11 56 56 61 28 3 53 14 67 28 38 38 55 25 69 -48zm2913 -33c0 -23 -17 -47 -32 -47 -8 0 -1 45 9 63 9 15 23 6 23 -16zm-2306 -9c8 -13 17 -41 21 -63 4 -22 16 -70 27 -107 24 -78 20 -101 -19 -96 -26 3 -27 7 -43 98 -9 52 -23 109 -32 127 -25 49 17 86 46 41zm-131 -35c8 -10 21 -49 27 -88 6 -38 21 -94 33 -124 22 -53 22 -53 -8 -77 -45 -37 -59 -28 -66 41 -9 76 -26 183 -35 213 -12 40 22 65 49 35zm2397 -108c4 -58 1 -65 -25 -65 -25 0 -40 102 -18 124 12 12 41 -28 43 -59zm187 -1c12 -26 0 -64 -19 -64 -4 0 -17 -23 -29 -50 -28 -66 -66 -98 -88 -75 -24 23 -23 171 0 167 9 -1 22 5 29 13 7 8 21 15 31 15 11 0 19 5 19 10 0 22 45 9 57 -16zm-2973 -20c4 -13 4 -35 0 -48 -16 -65 23 -79 82 -31 65 54 74 48 66 -50 -5 -66 16 -135 41 -135 36 0 49 36 43 117 -13 163 -13 158 9 158 15 0 21 -8 23 -30 3 -35 16 -74 44 -132 26 -53 21 -65 -46 -107 -29 -20 -60 -41 -67 -48 -74 -72 -109 -71 -110 4 -1 70 -20 132 -42 136 -19 4 -23 -18 -7 -34 12 -12 -13 -88 -40 -124 -18 -24 -106 -40 -174 -32 -42 5 -45 18 -22 98 26 90 30 133 12 140 -28 11 -18 19 40 32 70 17 67 23 53 -92 -12 -102 -7 -125 25 -113 35 14 51 151 31 265 -10 62 24 86 39 26zm2678 -79c6 -27 -28 -173 -44 -192 -42 -51 -132 0 -142 80 -4 29 -10 69 -13 90 -7 50 10 48 39 -5 45 -82 88 -84 88 -4 0 76 59 102 72 31zm246 -217c-3 -25 -34 -36 -51 -19 -7 7 -7 22 3 50 13 40 13 40 32 16 11 -14 18 -35 16 -47zm-2459 -4c38 -19 36 -32 -7 -53 -34 -17 -44 -36 -13 -26 29 9 36 -14 12 -36 -12 -11 -21 -25 -22 -32 0 -7 -4 -2 -10 11 -5 13 -14 20 -20 17 -16 -10 -49 25 -49 52 0 50 36 85 42 41 4 -33 24 -19 20 15 -2 31 3 33 47 11zm2330 -8c18 -22 26 -107 11 -116 -38 -23 -134 92 -103 123 12 12 80 7 92 -7zm-208 -67c24 -12 16 -29 -15 -29 -29 0 -39 10 -25 27 14 16 15 16 40 2zm-2283 -82c3 -45 2 -47 -22 -47 -26 0 -31 10 -27 55 5 67 45 61 49 -8zm-325 27c18 -9 39 -22 47 -29 28 -23 59 -27 92 -11 59 30 75 13 57 -59 -16 -65 -74 -92 -209 -97 -65 -3 -65 -3 -61 97 4 129 7 133 74 99zm321 -202c10 -17 16 -168 7 -182 -24 -35 -44 2 -47 85 -3 84 17 134 40 97zm-120 -98c13 -35 6 -121 -11 -136 -40 -34 -106 -18 -168 42 -16 16 -42 33 -57 39 -55 21 -32 41 62 57 102 18 167 17 174 -2z"/><path d="M10624 14903c4 -21 12 -42 17 -47 5 -6 9 -18 9 -28 0 -10 5 -18 10 -18 6 0 10 -6 10 -12 0 -7 9 -24 20 -38 11 -14 20 -33 20 -43 0 -20 14 -42 97 -154 30 -40 58 -73 63 -73 12 0 40 29 40 41 0 32 -111 166 -165 199 -22 14 -36 32 -40 53 -4 18 -14 46 -23 62 -8 17 -18 43 -22 60 -10 49 -45 48 -36 -2z"/><path d="M10805 14901c-14 -46 39 -121 86 -121 30 0 23 34 -17 90 -38 53 -59 62 -69 31z"/><path d="M10484 14624c8 -50 19 -102 38 -164 27 -92 117 -212 142 -191 19 16 7 51 -33 101 -40 50 -66 105 -84 177 -29 116 -77 175 -63 77z"/><path d="M11004 14435c-18 -45 91 -159 145 -153 49 6 38 38 -38 106 -70 63 -97 74 -107 47z"/><path d="M10564 14045c-7 -17 1 -29 71 -112 161 -189 574 -426 600 -344 10 33 -5 48 -63 65 -96 27 -259 120 -351 200 -20 18 -54 43 -77 58 -22 14 -65 54 -95 87 -55 62 -75 73 -85 46z"/><path d="M10337 13957c-17 -44 165 -240 218 -235 59 6 45 39 -43 107 -44 33 -95 78 -114 101 -36 42 -52 49 -61 27z"/><path d="M10803 13483c-10 -27 45 -64 231 -157 251 -125 307 -144 320 -110 10 26 -13 45 -119 94 -168 79 -247 118 -313 155 -69 38 -109 44 -119 18z"/><path d="M10422 13420c-33 -54 159 -213 448 -371 135 -73 185 -83 185 -35 0 27 -10 33 -155 108 -188 98 -305 176 -385 257 -65 67 -74 71 -93 41z"/><path d="M10265 13160c-16 -50 185 -210 264 -210 60 0 44 52 -26 86 -66 30 -123 68 -171 113 -38 36 -58 39 -67 11z"/><path d="M10670 12915c-28 -34 29 -70 252 -160 131 -52 161 -54 166 -13 4 33 -6 39 -148 88 -58 20 -128 48 -157 62 -72 35 -98 41 -113 23z"/><path d="M8492 12278c-18 -18 -15 -42 7 -62 28 -25 55 -17 59 17 6 47 -36 75 -66 45z"/><path d="M8703 12264c-7 -20 34 -149 53 -165 21 -17 44 -3 44 27 0 86 -76 193 -97 138z"/><path d="M8910 12156c0 -12 4 -36 9 -52 5 -16 17 -67 27 -113 21 -95 35 -117 65 -100 43 23 -31 289 -81 289 -14 0 -20 -7 -20 -24z"/><path d="M9165 11943c-22 -21 -17 -159 6 -174 48 -31 71 15 56 111 -11 77 -30 96 -62 63z"/><path d="M8330 11781c-17 -33 75 -87 210 -121 47 -12 124 -35 172 -51 105 -35 124 -36 138 -8 14 25 -11 59 -44 59 -24 0 -50 8 -275 84 -183 63 -186 63 -201 37z"/><path d="M9223 11663c-14 -5 -18 -49 -5 -57 32 -20 67 25 40 52 -13 13 -16 13 -35 5z"/><path d="M8523 11533c-67 -26 64 -111 207 -133 41 -6 112 -20 158 -31 96 -24 147 -9 147 42 0 23 -4 24 -71 30 -104 10 -342 59 -388 80 -22 11 -40 19 -40 18 -1 0 -7 -3 -13 -6z"/><path d="M7165 10241c-49 -23 -100 -75 -90 -91 14 -22 100 -4 151 30 82 57 34 106 -61 61z"/><path d="M10065 8731c-13 -22 -55 -270 -48 -287 9 -25 41 -16 47 14 21 98 44 256 39 268 -6 16 -29 19 -38 5z"/><path d="M10327 7327c-39 -93 -47 -151 -18 -133 14 9 49 89 56 129 9 49 -19 52 -38 4z"/><path d="M11190 6126c0 -8 5 -18 11 -22 6 -3 9 -15 6 -25 -6 -23 6 -25 23 -4 9 11 8 19 -7 39 -20 29 -33 33 -33 12z"/><path d="M13354 14558c-42 -69 -72 -110 -109 -153 -39 -44 -42 -57 -21 -74 23 -19 49 1 115 89 77 102 82 111 72 145 -11 43 -27 41 -57 -7z"/><path d="M12643 14353c-7 -2 -13 -11 -13 -19 0 -8 -4 -22 -9 -32 -18 -33 -31 -128 -41 -295 -11 -169 -9 -187 14 -187 35 0 41 31 46 229 4 163 8 202 23 233 26 52 16 86 -20 71z"/><path d="M13347 14157c-8 -7 -44 -48 -78 -92 -35 -44 -78 -96 -97 -116 -18 -20 -39 -43 -45 -51 -7 -8 -50 -43 -97 -76 -126 -90 -162 -142 -100 -142 28 0 219 146 238 182 9 17 30 43 47 57 82 71 185 194 185 220 0 19 -36 31 -53 18z"/><path d="M13170 13681c-19 -10 -87 -50 -150 -91 -109 -69 -133 -83 -247 -146 -213 -116 -324 -202 -309 -239 8 -22 13 -20 123 43 56 31 132 74 169 96 287 162 504 306 504 337 0 25 -41 25 -90 0z"/><path d="M13564 13322c-54 -55 -120 -113 -146 -131 -46 -31 -61 -62 -37 -76 25 -16 66 12 163 109 57 57 115 111 130 121 20 13 26 25 24 44 -5 47 -32 34 -134 -67z"/><path d="M11997 13403c-15 -14 -9 -70 30 -270 17 -88 43 -143 67 -143 27 0 27 18 1 107 -27 94 -58 261 -50 273 15 25 -28 54 -48 33z"/><path d="M13819 13289c-35 -28 -86 -68 -114 -90 -27 -22 -71 -56 -97 -75 -68 -50 -55 -91 14 -43 155 107 298 223 298 240 0 32 -33 22 -101 -32z"/><path d="M13015 13295c-22 -14 -69 -34 -105 -46 -117 -37 -215 -91 -215 -118 0 -42 34 -43 106 -5 35 19 89 46 119 60 141 64 180 89 180 114 0 28 -35 26 -85 -5z"/><path d="M13222 13243c-15 -16 -53 -57 -85 -91 -32 -34 -85 -82 -118 -107 -78 -61 -110 -125 -62 -125 59 0 347 267 341 317 -4 40 -40 43 -76 6z"/><path d="M13410 12765c-11 -13 -8 -21 15 -45 41 -43 95 -36 95 11 0 40 -84 65 -110 34z"/><path d="M13105 12701c-28 -46 145 -161 225 -149 58 8 30 40 -85 100 -114 59 -130 64 -140 49z"/><path d="M12715 12670c-7 -11 9 -37 35 -56 8 -7 26 -22 40 -34 114 -102 321 -232 363 -228 59 6 41 36 -54 93 -47 28 -123 82 -169 119 -116 94 -198 134 -215 106z"/><path d="M12557 12493c-24 -23 20 -74 97 -113 40 -20 79 -64 92 -102 26 -77 76 -64 72 19 -3 53 -6 59 -38 80 -19 12 -67 45 -107 73 -67 47 -100 59 -116 43z"/></g></svg>